<svg id="Layer_1" data-name="Layer 1" xmlns="http://www.w3.org/2000/svg" viewBox="0 0 24 24" stroke-width="1.5" width="24" height="24" color="#000000"><defs><style>.cls-637b87aff95e86b59c57a189-1{fill:none;stroke:currentColor;stroke-miterlimit:10;}</style></defs><circle class="cls-637b87aff95e86b59c57a189-1" cx="6.27" cy="17.73" r="1.91"></circle><circle class="cls-637b87aff95e86b59c57a189-1" cx="17.73" cy="17.73" r="1.91"></circle><path class="cls-637b87aff95e86b59c57a189-1" d="M4.36,17.73H1.5V6.27A1.91,1.91,0,0,1,3.41,4.36H20.59A1.91,1.91,0,0,1,22.5,6.27V17.73H19.64"></path><line class="cls-637b87aff95e86b59c57a189-1" x1="15.82" y1="17.73" x2="8.18" y2="17.73"></line><line class="cls-637b87aff95e86b59c57a189-1" x1="17.73" y1="5.32" x2="17.73" y2="10.09"></line><path class="cls-637b87aff95e86b59c57a189-1" d="M22.5,13H19.64a1.9,1.9,0,0,1-1.91-1.9v-1H1.5"></path><line class="cls-637b87aff95e86b59c57a189-1" x1="13.91" y1="5.32" x2="13.91" y2="10.09"></line><line class="cls-637b87aff95e86b59c57a189-1" x1="6.27" y1="5.32" x2="6.27" y2="10.09"></line><line class="cls-637b87aff95e86b59c57a189-1" x1="10.09" y1="5.32" x2="10.09" y2="10.09"></line></svg>